<svg width="284" height="284" viewBox="0 0 284 284" fill="none" xmlns="http://www.w3.org/2000/svg">
<g clip-path="url(#clip0_7_239)">
<path d="M83.6154 219V65H77.4615V219H83.6154ZM59 65V219H71.3077V65H59ZM108.231 219V65H95.9231V219H108.231ZM126.692 65V219H139V65H126.692ZM114.385 65V219H120.538V65H114.385Z" fill="#2E4059"/>
<path d="M170.615 219V65H164.462V219H170.615ZM146 65V219H158.308V65H146ZM195.231 219V65H182.923V219H195.231ZM213.692 65V219H226V65H213.692ZM201.385 65V219H207.538V65H201.385Z" fill="#2E4059"/>
<path d="M72.4962 26H55.1424C39.5283 26 26.8705 38.6578 26.8705 54.272V54.272" stroke="#2E4059" stroke-width="5" stroke-linecap="round"/>
<path d="M72.4962 259H55.1424C39.5283 259 26.8705 246.342 26.8705 230.728V230.728" stroke="#2E4059" stroke-width="5" stroke-linecap="round"/>
<path d="M211.374 26H228.728C244.342 26 257 38.6578 257 54.272V54.272" stroke="#2E4059" stroke-width="5" stroke-linecap="round"/>
<path d="M211.374 259H228.728C244.342 259 257 246.342 257 230.728V230.728" stroke="#2E4059" stroke-width="5" stroke-linecap="round"/>
</g>
<defs>
<clipPath id="clip0_7_239">
<rect width="284" height="284" fill="white"/>
</clipPath>
</defs>
</svg>
